<?xml version="1.0" encoding="utf-8"?>
<!-- Generator: Adobe Illustrator 19.2.1, SVG Export Plug-In . SVG Version: 6.00 Build 0)  -->
<svg version="1.1" id="Layer_1" xmlns="http://www.w3.org/2000/svg" xmlns:xlink="http://www.w3.org/1999/xlink" x="0px" y="0px"
	 viewBox="0 0 50 50" enable-background="new 0 0 50 50" xml:space="preserve">
<g>
	<circle fill="none" stroke="#999999" stroke-linecap="round" stroke-miterlimit="10" cx="23" cy="23.5" r="19.4"/>
	<path fill="none" stroke="#999999" stroke-linecap="round" stroke-miterlimit="10" d="M23,40.9c-9.6,0-17.4-7.8-17.4-17.4
		c0-9.6,7.8-17.4,17.4-17.4c9.6,0,17.4,7.8,17.4,17.4C40.4,33.1,32.6,40.9,23,40.9z"/>
	<path fill="none" stroke="#999999" stroke-linecap="round" stroke-miterlimit="10" d="M9.6,23.5c0-7.4,6-13.4,13.4-13.4"/>
	<path fill="none" stroke="#999999" stroke-linecap="round" stroke-miterlimit="10" d="M42.1,45.5l-4.5-4.5c-0.8-0.8-0.8-2.1,0-2.9
		l0.6-0.6c0.8-0.8,2.1-0.8,2.9,0l4.5,4.5c0.8,0.8,0.8,2.1,0,2.9L45,45.5C44.2,46.3,42.9,46.3,42.1,45.5z"/>
</g>

</svg>
